<svg width="25" height="25" viewBox="0 0 25 25" fill="none" xmlns="http://www.w3.org/2000/svg">
<path d="M22.8333 12.5V17.5C22.8333 20.5 20.8333 22.5 17.8333 22.5H7.83325C4.83325 22.5 2.83325 20.5 2.83325 17.5V12.5C2.83325 9.78 4.47325 7.88 7.02325 7.56C7.28325 7.52 7.55325 7.5 7.83325 7.5H17.8333C18.0933 7.5 18.3433 7.50999 18.5833 7.54999C21.1633 7.84999 22.8333 9.76 22.8333 12.5Z" stroke="#F1BD42" stroke-width="1.5" stroke-linecap="round" stroke-linejoin="round"/>
<path d="M18.5847 7.55C18.3447 7.51 18.0947 7.50001 17.8347 7.50001H7.83466C7.55466 7.50001 7.28466 7.52001 7.02466 7.56001C7.16466 7.28001 7.36466 7.02001 7.60466 6.78001L10.8547 3.52C12.2247 2.16 14.4447 2.16 15.8147 3.52L17.5647 5.29002C18.2047 5.92002 18.5447 6.72 18.5847 7.55Z" stroke="#F1BD42" stroke-width="1.5" stroke-linecap="round" stroke-linejoin="round"/>
<path d="M22.8333 13H19.8333C18.7333 13 17.8333 13.9 17.8333 15C17.8333 16.1 18.7333 17 19.8333 17H22.8333" stroke="#F1BD42" stroke-width="1.5" stroke-linecap="round" stroke-linejoin="round"/>
</svg>
